<svg xmlns="http://www.w3.org/2000/svg" xmlns:xlink="http://www.w3.org/1999/xlink" width="1920" zoomAndPan="magnify" viewBox="0 0 1440 809.999993" height="1080" preserveAspectRatio="xMidYMid meet" version="1.0"><defs><clipPath id="45faee2d18"><path d="M 1.121094 0.152344 L 716.878906 0.152344 L 716.878906 523.960938 L 1.121094 523.960938 Z M 1.121094 0.152344 " clip-rule="nonzero"/></clipPath><clipPath id="2f19235c95"><rect x="0" width="718" y="0" height="524"/></clipPath></defs><g transform="matrix(1, 0, 0, 1, 361, 143)"><g clip-path="url(#2f19235c95)"><g clip-path="url(#45faee2d18)"><path fill="#e3b061" d="M 132.863281 69.976562 C 118.578125 52.519531 101.121094 39.824219 82.078125 30.304688 C 56.6875 19.195312 29.710938 12.847656 2.734375 14.433594 C 1.144531 14.433594 1.144531 14.433594 1.144531 12.847656 L 1.144531 1.738281 C 1.144531 0.152344 1.144531 0.152344 2.734375 0.152344 L 189.992188 0.152344 C 191.578125 0.152344 191.578125 0.152344 191.578125 1.738281 L 366.140625 374.667969 C 366.140625 374.667969 366.140625 376.253906 366.140625 377.84375 C 358.207031 395.300781 350.273438 411.167969 342.335938 427.039062 C 337.578125 438.144531 331.230469 444.492188 323.292969 450.839844 C 321.707031 450.839844 321.707031 450.839844 321.707031 450.839844 C 267.75 334.996094 218.554688 230.257812 177.296875 139.800781 C 177.296875 139.800781 174.121094 133.453125 167.773438 122.347656 C 158.253906 103.300781 147.144531 85.847656 132.863281 69.976562 Z M 567.683594 87.433594 C 567.683594 85.847656 566.09375 85.847656 566.09375 87.433594 L 367.726562 522.253906 C 366.140625 523.839844 366.140625 523.839844 364.554688 523.839844 L 2.734375 523.839844 C 1.144531 523.839844 1.144531 523.839844 1.144531 522.253906 L 1.144531 511.144531 C 1.144531 511.144531 1.144531 509.558594 2.734375 509.558594 C 18.601562 509.558594 26.535156 509.558594 28.125 509.558594 C 34.472656 509.558594 39.230469 507.972656 45.578125 506.382812 C 63.035156 500.035156 72.558594 487.339844 74.144531 468.296875 C 75.730469 455.601562 77.320312 442.90625 77.320312 433.386719 C 77.320312 209.628906 77.320312 93.78125 77.320312 85.847656 C 75.730469 77.910156 75.730469 69.976562 75.730469 62.042969 C 75.730469 60.457031 75.730469 60.457031 75.730469 60.457031 C 107.46875 77.910156 129.6875 104.890625 147.144531 136.628906 C 150.316406 142.976562 151.90625 144.5625 151.90625 150.910156 C 150.316406 268.34375 150.316406 363.558594 151.90625 439.734375 C 151.90625 449.253906 151.90625 457.191406 153.492188 466.710938 C 155.078125 474.644531 161.425781 482.582031 169.359375 487.339844 C 172.535156 488.929688 177.296875 488.929688 186.816406 490.515625 C 205.859375 490.515625 232.839844 492.101562 264.578125 490.515625 C 299.488281 490.515625 334.402344 482.582031 356.621094 455.601562 C 361.378906 449.253906 369.316406 436.558594 377.25 417.515625 C 421.683594 322.300781 483.574219 184.238281 567.683594 1.738281 C 567.683594 0.152344 567.683594 0.152344 569.269531 0.152344 L 715.265625 0.152344 C 716.855469 0.152344 716.855469 0.152344 716.855469 1.738281 L 716.855469 12.847656 C 716.855469 14.433594 716.855469 14.433594 715.265625 14.433594 C 700.984375 14.433594 686.703125 14.433594 674.007812 16.019531 C 654.964844 20.78125 647.027344 38.238281 645.441406 55.695312 C 642.269531 66.804688 642.269531 79.5 642.269531 93.78125 C 642.269531 122.347656 642.269531 239.777344 642.269531 444.492188 C 642.269531 458.777344 643.855469 473.058594 648.617188 485.753906 C 656.550781 506.382812 672.421875 509.558594 691.464844 509.558594 C 700.984375 509.558594 708.917969 509.558594 715.265625 509.558594 C 716.855469 509.558594 716.855469 509.558594 716.855469 511.144531 L 716.855469 523.839844 C 716.855469 523.839844 716.855469 523.839844 715.265625 523.839844 L 494.683594 523.839844 C 494.683594 523.839844 493.097656 523.839844 493.097656 522.253906 L 493.097656 511.144531 C 493.097656 509.558594 494.683594 509.558594 494.683594 509.558594 C 505.792969 509.558594 516.898438 509.558594 528.007812 509.558594 C 545.464844 506.382812 556.574219 498.449219 561.335938 484.167969 C 566.09375 471.472656 567.683594 458.777344 567.683594 444.492188 C 567.683594 368.320312 567.683594 249.300781 567.683594 89.019531 C 567.683594 89.019531 567.683594 87.433594 567.683594 87.433594 Z M 567.683594 87.433594 " fill-opacity="1" fill-rule="evenodd"/></g></g></g></svg>